<svg width="80" height="81" viewBox="0 0 80 81" fill="none" xmlns="http://www.w3.org/2000/svg">
<path opacity="0.2" d="M41.6667 40.841V73.0004C41.2468 72.9987 40.8341 72.8912 40.4667 72.6879L12.9667 57.6316C12.574 57.4168 12.2462 57.1005 12.0175 56.7157C11.7889 56.3309 11.6677 55.8918 11.6667 55.4441V25.5566C11.6677 25.2065 11.7422 24.8605 11.8854 24.541L41.6667 40.841Z" fill="#565971" fill-opacity="0.5"/>
<path d="M69.0667 22.8318L41.5667 7.78497C40.8319 7.37898 40.0062 7.16602 39.1667 7.16602C38.3272 7.16602 37.5015 7.37898 36.7667 7.78497L9.26669 22.8381C8.48134 23.2678 7.82576 23.9005 7.36841 24.67C6.91106 25.4396 6.66872 26.3179 6.66669 27.2131V57.1006C6.66872 57.9958 6.91106 58.8741 7.36841 59.6436C7.82576 60.4132 8.48134 61.0459 9.26669 61.4756L36.7667 76.5287C37.5015 76.9347 38.3272 77.1477 39.1667 77.1477C40.0062 77.1477 40.8319 76.9347 41.5667 76.5287L69.0667 61.4756C69.852 61.0459 70.5076 60.4132 70.965 59.6436C71.4223 58.8741 71.6647 57.9958 71.6667 57.1006V27.2162C71.6663 26.3194 71.4248 25.4392 70.9673 24.6678C70.5099 23.8965 69.8534 23.2623 69.0667 22.8318ZM39.1667 12.16L64.2729 25.91L54.9698 31.0037L29.8604 17.2537L39.1667 12.16ZM39.1667 39.66L14.0604 25.91L24.6542 20.11L49.7604 33.86L39.1667 39.66ZM11.6667 30.285L36.6667 43.9662V70.7756L11.6667 57.1037V30.285ZM66.6667 57.0912L41.6667 70.7756V43.9787L51.6667 38.5068V49.66C51.6667 50.323 51.9301 50.9589 52.3989 51.4277C52.8678 51.8966 53.5036 52.16 54.1667 52.16C54.8297 52.16 55.4656 51.8966 55.9345 51.4277C56.4033 50.9589 56.6667 50.323 56.6667 49.66V35.7693L66.6667 30.285V57.0881V57.0912Z" fill="#D9D9D9"/>
</svg>
