<svg width="24" height="25" viewBox="0 0 24 25" fill="none" xmlns="http://www.w3.org/2000/svg">
<g clip-path="url(#clip0_1963_2021)">
<path d="M20.4673 19.3312C20.1195 20.1348 19.7078 20.8744 19.2308 21.5545C18.5805 22.4815 18.0481 23.1232 17.6378 23.4796C17.0018 24.0645 16.3204 24.3641 15.5906 24.3811C15.0667 24.3811 14.435 24.232 13.6996 23.9296C12.9617 23.6287 12.2837 23.4796 11.6637 23.4796C11.0135 23.4796 10.3161 23.6287 9.5702 23.9296C8.82315 24.232 8.22133 24.3896 7.7612 24.4052C7.06143 24.4351 6.36393 24.127 5.6677 23.4796C5.22333 23.092 4.66752 22.4276 4.00167 21.4863C3.28727 20.4812 2.69994 19.3156 2.23981 17.9867C1.74703 16.5514 1.5 15.1615 1.5 13.8159C1.5 12.2745 1.83306 10.9451 2.50019 9.83107C3.02448 8.93623 3.72199 8.23035 4.59497 7.71216C5.46795 7.19396 6.4112 6.9299 7.42701 6.913C7.98282 6.913 8.7117 7.08493 9.61748 7.42282C10.5207 7.76185 11.1006 7.93377 11.3549 7.93377C11.545 7.93377 12.1893 7.73274 13.2815 7.33196C14.3143 6.96028 15.186 6.80638 15.9001 6.867C17.8352 7.02317 19.289 7.78598 20.2558 9.16026C18.5252 10.2089 17.6691 11.6775 17.6861 13.5616C17.7017 15.0292 18.2341 16.2504 19.2804 17.2201C19.7546 17.6701 20.2842 18.018 20.8734 18.265C20.7456 18.6355 20.6107 18.9905 20.4673 19.3312ZM16.0293 1.86736C16.0293 3.01762 15.6091 4.09161 14.7714 5.08569C13.7606 6.26746 12.538 6.95034 11.2121 6.84259C11.1952 6.70459 11.1854 6.55935 11.1854 6.40673C11.1854 5.30248 11.6661 4.12072 12.5198 3.15446C12.946 2.66523 13.488 2.25844 14.1454 1.93394C14.8013 1.61428 15.4217 1.4375 16.0052 1.40723C16.0222 1.561 16.0293 1.71478 16.0293 1.86734V1.86736Z" fill="black"/>
</g>
<defs>
<clipPath id="clip0_1963_2021">
<rect width="24" height="24" fill="white" transform="translate(0 0.407227)"/>
</clipPath>
</defs>
</svg>
