<svg width="24" height="25" viewBox="0 0 24 25" fill="none" xmlns="http://www.w3.org/2000/svg">
<path fill-rule="evenodd" clip-rule="evenodd" d="M23.04 12.6677C23.04 11.8522 22.9668 11.0682 22.8309 10.3154H12V14.7638H18.1891C17.9225 16.2013 17.1123 17.4193 15.8943 18.2347V21.1202H19.6109C21.7855 19.1182 23.04 16.17 23.04 12.6677Z" fill="#4285F4"/>
<path fill-rule="evenodd" clip-rule="evenodd" d="M11.9995 23.9078C15.1045 23.9078 17.7077 22.878 19.6104 21.1216L15.8938 18.2362C14.864 18.9262 13.5467 19.3339 11.9995 19.3339C9.00425 19.3339 6.46902 17.311 5.5647 14.5928H1.72266V17.5723C3.61493 21.3307 7.50402 23.9078 11.9995 23.9078Z" fill="#34A853"/>
<path fill-rule="evenodd" clip-rule="evenodd" d="M5.56523 14.5927C5.33523 13.9027 5.20455 13.1657 5.20455 12.4077C5.20455 11.6498 5.33523 10.9127 5.56523 10.2227V7.24316H1.72318C0.944318 8.79566 0.5 10.552 0.5 12.4077C0.5 14.2634 0.944318 16.0198 1.72318 17.5723L5.56523 14.5927Z" fill="#FBBC05"/>
<path fill-rule="evenodd" clip-rule="evenodd" d="M11.9995 5.48109C13.6879 5.48109 15.2038 6.06132 16.3956 7.20086L19.694 3.90245C17.7024 2.04677 15.0992 0.907227 11.9995 0.907227C7.50402 0.907227 3.61493 3.48427 1.72266 7.24268L5.5647 10.2222C6.46902 7.50404 9.00425 5.48109 11.9995 5.48109Z" fill="#EA4335"/>
</svg>
