<svg width="40" height="40" viewBox="0 0 40 40" fill="none" xmlns="http://www.w3.org/2000/svg">
<path opacity="0.2" d="M36.25 18.125V27.5C36.25 27.8315 36.1183 28.1495 35.8839 28.3839C35.6495 28.6183 35.3315 28.75 35 28.75H20V18.125C20 15.9701 19.144 13.9035 17.6202 12.3798C16.0965 10.856 14.0299 10 11.875 10H28.125C30.2799 10 32.3465 10.856 33.8702 12.3798C35.394 13.9035 36.25 15.9701 36.25 18.125Z" fill="#565971"/>
<path d="M16.25 23.75C16.25 24.0815 16.1183 24.3995 15.8839 24.6339C15.6495 24.8683 15.3315 25 15 25H8.75C8.41848 25 8.10054 24.8683 7.86612 24.6339C7.6317 24.3995 7.5 24.0815 7.5 23.75C7.5 23.4185 7.6317 23.1005 7.86612 22.8661C8.10054 22.6317 8.41848 22.5 8.75 22.5H15C15.3315 22.5 15.6495 22.6317 15.8839 22.8661C16.1183 23.1005 16.25 23.4185 16.25 23.75ZM37.5 18.125V27.5C37.5 28.163 37.2366 28.7989 36.7678 29.2678C36.2989 29.7366 35.663 30 35 30H21.25V35C21.25 35.3315 21.1183 35.6495 20.8839 35.8839C20.6495 36.1183 20.3315 36.25 20 36.25C19.6685 36.25 19.3505 36.1183 19.1161 35.8839C18.8817 35.6495 18.75 35.3315 18.75 35V30H5C4.33696 30 3.70107 29.7366 3.23223 29.2678C2.76339 28.7989 2.5 28.163 2.5 27.5V18.125C2.50289 15.6395 3.49154 13.2566 5.24907 11.4991C7.0066 9.74154 9.38948 8.75289 11.875 8.75H23.75V3.75C23.75 3.41848 23.8817 3.10054 24.1161 2.86612C24.3505 2.6317 24.6685 2.5 25 2.5H30C30.3315 2.5 30.6495 2.6317 30.8839 2.86612C31.1183 3.10054 31.25 3.41848 31.25 3.75C31.25 4.08152 31.1183 4.39946 30.8839 4.63388C30.6495 4.8683 30.3315 5 30 5H26.25V8.75H28.125C30.6105 8.75289 32.9934 9.74154 34.7509 11.4991C36.5085 13.2566 37.4971 15.6395 37.5 18.125ZM18.75 27.5V18.125C18.75 16.3016 18.0257 14.553 16.7364 13.2636C15.447 11.9743 13.6984 11.25 11.875 11.25C10.0516 11.25 8.30295 11.9743 7.01364 13.2636C5.72433 14.553 5 16.3016 5 18.125V27.5H18.75ZM35 18.125C34.9979 16.3023 34.2729 14.5548 32.9841 13.2659C31.6952 11.9771 29.9477 11.2521 28.125 11.25H26.25V22.5C26.25 22.8315 26.1183 23.1495 25.8839 23.3839C25.6495 23.6183 25.3315 23.75 25 23.75C24.6685 23.75 24.3505 23.6183 24.1161 23.3839C23.8817 23.1495 23.75 22.8315 23.75 22.5V11.25H18.2422C19.191 12.1262 19.9481 13.1894 20.4658 14.3726C20.9835 15.5559 21.2505 16.8335 21.25 18.125V27.5H35V18.125Z" fill="#565971"/>
</svg>
